{
    "asset": {
        "version": "2.0",
        "generator": "Open Asset Import Library (assimp v5.0.5eb040c7)"
    },
    "accessors": [
        {
            "bufferView": 0,
            "byteOffset": 0,
            "componentType": 5126,
            "count": 4494,
            "type": "VEC3",
            "max": [
                203.8726806640625,
                193.08404541015626,
                302.9928283691406
            ],
            "min": [
                -203.8726806640625,
                -317.7435302734375,
                -148.4731903076172
            ]
        },
        {
            "bufferView": 1,
            "byteOffset": 0,
            "componentType": 5126,
            "count": 4494,
            "type": "VEC3",
            "max": [
                1.0,
                0.9996288418769836,
                0.9999957084655762
            ],
            "min": [
                -1.0,
                -0.9998039603233337,
                -0.9999579191207886
            ]
        },
        {
            "bufferView": 2,
            "byteOffset": 0,
            "componentType": 5126,
            "count": 4494,
            "type": "VEC2",
            "max": [
                0.9913557767868042,
                0.9913429021835327
            ],
            "min": [
                0.00864420086145401,
                0.008657097816467286
            ]
        },
        {
            "bufferView": 3,
            "byteOffset": 0,
            "componentType": 5125,
            "count": 22512,
            "type": "SCALAR",
            "max": [
                4493
            ],
            "min": [
                0
            ]
        }
    ],
    "buffers": [
        {
            "byteLength": 233856,
            "uri": "result.bin"
        }
    ],
    "bufferViews": [
        {
            "buffer": 0,
            "byteOffset": 0,
            "byteLength": 53928,
            "target": 34962
        },
        {
            "buffer": 0,
            "byteOffset": 53928,
            "byteLength": 53928,
            "target": 34962
        },
        {
            "buffer": 0,
            "byteOffset": 107856,
            "byteLength": 35952,
            "target": 34962
        },
        {
            "buffer": 0,
            "byteOffset": 143808,
            "byteLength": 90048,
            "target": 34963
        }
    ],
    "materials": [
        {
            "name": "DefaultMaterial",
            "pbrMetallicRoughness": {
                "baseColorFactor": [
                    0.6000000238418579,
                    0.6000000238418579,
                    0.6000000238418579,
                    1.0
                ],
                "metallicFactor": 0.0
            }
        },
        {
            "name": "Subdivision Surface",
            "pbrMetallicRoughness": {
                "baseColorFactor": [
                    0.6000000238418579,
                    0.6000000238418579,
                    0.6000000238418579,
                    1.0
                ],
                "metallicFactor": 0.0
            }
        }
    ],
    "meshes": [
        {
            "name": "Bag",
            "primitives": [
                {
                    "mode": 4,
                    "material": 1,
                    "indices": 3,
                    "attributes": {
                        "POSITION": 0,
                        "NORMAL": 1,
                        "TEXCOORD_0": 2
                    }
                }
            ]
        }
    ],
    "nodes": [
        {
            "name": "input.obj",
            "children": [
                1
            ]
        },
        {
            "name": "Bag",
            "mesh": 0
        }
    ],
    "scenes": [
        {
            "nodes": [
                0
            ]
        }
    ],
    "scene": 0
}